# xmcd CD database file generated by Grip 3.3.1
# 
# Track frame offsets:
#       150
#       14592
#       32860
# 
# Disc length: 639 seconds
# 
# Revision: 1
# Processed by: cddbd v1.5.2PL0 Copyright (c) Steve Scherf et al.
# Submitted via: Grip 3.3.1
# 
DISCID=1f027d03
DTITLE=Madsen - Du schreibst Geschichte
DYEAR=2006
DGENRE=Alternative
TTITLE0=Du schreibst Geschichte
TTITLE1=Plastikwelt
TTITLE2=Überall und nirgendwo
EXTD=
EXTT0=
EXTT1=
EXTT2=
PLAYORDER=
